<svg width="100" height="100" viewBox="0 0 100 100" fill="none" xmlns="http://www.w3.org/2000/svg">
<g filter="url(#filter0_d_1519_11457)">
<circle cx="49.832" cy="49.832" r="45.832" fill="#CBFFE0"/>
<circle cx="49.832" cy="49.832" r="45.332" stroke="#3BE178"/>
</g>
<g clip-path="url(#clip0_1519_11457)">
<path d="M36.9303 51.4092H29.832V38.5069H36.9303V51.4092Z" fill="#00C7A9"/>
<path d="M36.9297 38.5075C44.0437 38.5075 49.8314 44.2949 49.8314 51.4093H56.9298C56.9298 40.3639 47.9754 31.4092 36.9297 31.4092V38.5075Z" fill="url(#paint0_linear_1519_11457)"/>
<path d="M69.8326 31.4086V38.5069C62.7183 38.5069 56.9303 44.2949 56.9303 51.4092H49.832C49.832 40.363 58.7867 31.4086 69.8326 31.4086Z" fill="#00C7A9"/>
</g>
<path d="M33.6359 78.4092V72.0445H34.6469V78.4092H33.6359ZM33.437 70.3208C33.437 69.9479 33.7602 69.6495 34.1497 69.6495C34.5309 69.6495 34.8541 69.9479 34.8541 70.3208C34.8541 70.6937 34.5309 70.9921 34.1497 70.9921C33.7602 70.9921 33.437 70.6937 33.437 70.3208ZM36.3818 69.923H37.6497L40.5088 76.9092H40.6083L43.4674 69.923H44.7354V78.4092H43.7409V72.0031H43.658L41.0227 78.4092H40.0862L37.4508 71.9948H37.3763V78.4092H36.3818V69.923ZM47.4493 69.7324V71.3567H49.7697V69.7324H50.6316V74.5224H46.5791V69.7324H47.4493ZM47.4493 73.7766H49.7697V72.0943H47.4493V73.7766ZM48.0045 77.4644C47.9962 76.2711 49.3305 75.5832 51.5017 75.5832C53.6564 75.5832 54.999 76.2711 54.999 77.4644C54.999 78.6495 53.6564 79.3374 51.5017 79.3374C49.3305 79.3374 47.9962 78.6495 48.0045 77.4644ZM48.9161 77.4644C48.9078 78.1854 49.9023 78.6081 51.5017 78.6081C53.0846 78.6081 54.0791 78.1854 54.0874 77.4644C54.0791 76.7351 53.0846 76.3042 51.5017 76.3042C49.9023 76.3042 48.9078 76.7351 48.9161 77.4644ZM51.8167 75.0197V69.1523H52.6785V71.7296H54.0708V68.9534H54.941V75.3346H54.0708V72.4921H52.6785V75.0197H51.8167ZM64.7817 70.0059V71.2987C64.7817 72.8318 64.7817 74.249 64.3425 76.3622L63.4226 76.2793C63.6505 75.2807 63.7665 74.4106 63.8245 73.6025L57.464 73.9423L57.3314 73.1799L63.8618 72.9106C63.8825 72.3595 63.8825 71.8332 63.8867 71.2987V70.7766H57.6132V70.0059H64.7817ZM56.4695 77.8954V77.1246H65.9668V77.8954H56.4695Z" fill="#757575"/>
<path d="M76.4731 24.7212C76.4731 19.1983 80.9503 14.7212 86.4731 14.7212C91.996 14.7212 96.4731 19.1983 96.4731 24.7212C96.4731 30.244 91.996 34.7212 86.4731 34.7212C80.9503 34.7212 76.4731 30.244 76.4731 24.7212Z" fill="#62FF9C"/>
<path d="M82.0083 25.0144L85.5489 28.5413L90.9408 22.1177" stroke="white" stroke-width="2.5" stroke-linecap="round" stroke-linejoin="round"/>
<defs>
<filter id="filter0_d_1519_11457" x="0" y="0" width="99.6641" height="99.6641" filterUnits="userSpaceOnUse" color-interpolation-filters="sRGB">
<feFlood flood-opacity="0" result="BackgroundImageFix"/>
<feColorMatrix in="SourceAlpha" type="matrix" values="0 0 0 0 0 0 0 0 0 0 0 0 0 0 0 0 0 0 127 0" result="hardAlpha"/>
<feOffset/>
<feGaussianBlur stdDeviation="2"/>
<feComposite in2="hardAlpha" operator="out"/>
<feColorMatrix type="matrix" values="0 0 0 0 0.796078 0 0 0 0 1 0 0 0 0 0.878431 0 0 0 1 0"/>
<feBlend mode="normal" in2="BackgroundImageFix" result="effect1_dropShadow_1519_11457"/>
<feBlend mode="normal" in="SourceGraphic" in2="effect1_dropShadow_1519_11457" result="shape"/>
</filter>
<linearGradient id="paint0_linear_1519_11457" x1="36.9297" y1="41.4094" x2="56.9297" y2="41.4094" gradientUnits="userSpaceOnUse">
<stop stop-color="#00C7A9"/>
<stop offset="0.163497" stop-color="#00C7A9"/>
<stop offset="0.999669" stop-color="#E2F15E"/>
<stop offset="1" stop-color="#E2F15E"/>
</linearGradient>
<clipPath id="clip0_1519_11457">
<rect width="40" height="40" fill="white" transform="translate(29.832 21.4092)"/>
</clipPath>
</defs>
</svg>
