<svg width="38" height="40" viewBox="0 0 38 40" fill="none" xmlns="http://www.w3.org/2000/svg">
<path d="M10.5133 19.9875C14.7857 22.7347 15.1996 25.1934 14.2814 27.2199C13.9014 28.0661 13.0986 28.8032 13.0986 28.8032C13.0986 28.8032 16.7248 27.054 17.8724 24.4968C19.1554 21.6405 17.7656 18.616 13.8797 15.9943C10.6605 13.8247 11.998 11.7723 11.998 11.7723C11.998 11.7723 13.0594 9.06853 17.0233 9.0697C21.0763 9.0697 21.3754 11.7952 21.3754 11.7952L22.9586 8.65806C23.1803 8.16375 20.3786 6.77461 16.3507 6.77344C12.385 6.77344 8.72777 8.36781 7.30228 11.5442C5.55956 15.4231 7.77138 18.2272 10.5133 19.9875Z" fill="#1277BD"/>
<path d="M36.5784 24.3844C37.1349 22.8241 40.3089 14.9801 34.8474 14.9789C31.1198 14.9789 26.9019 17.9032 26.9019 17.9032L30.6032 9.29043C30.6032 9.29043 31.6276 7.22578 29.2592 7.22461H25.443C25.443 7.22461 26.8591 7.78343 25.6078 10.5711L20.0882 23.1431C20.0882 23.1431 16.9546 29.941 10.6522 29.9398C2.35725 29.9398 2.99933 21.5106 2.99933 21.5106L0 28.1296C0 28.1296 2.68152 33.2253 9.23959 33.2265C13.2053 33.2265 15.7208 31.5547 16.9429 30.2359C16.9429 30.2359 15.759 32.9919 18.9002 32.9919H22.1253C22.1253 32.9919 21.217 32.3586 21.2844 31.5559C21.3519 30.7531 22.4308 28.217 23.1608 26.8894C23.8909 25.5619 27.5077 19.1211 31.7226 18.7165C35.5223 18.3529 29.7963 30.2881 29.7963 30.2881C29.7963 30.2881 28.6904 32.8717 31.5631 32.9479C34.4358 33.0242 34.9641 33.0212 34.9641 33.0212C34.9641 33.0212 33.8834 32.2132 34.417 30.7414C34.9506 29.2696 36.0213 25.946 36.5784 24.3844Z" fill="#1277BD"/>
</svg>
